<svg width="24" height="24" viewBox="0 0 48 48" xmlns="http://www.w3.org/2000/svg">
  <path fill="#4285F4" d="M24 9.5c3.31 0 6.14 1.14 8.41 3.01l6.22-6.22C34.72 2.27 29.71 0 24 0 14.59 0 6.64 5.64 2.91 13.77l7.63 5.93C12.49 13.07 17.74 9.5 24 9.5z"/>
  <path fill="#34A853" d="M46.09 24.56c0-1.42-.13-2.78-.36-4.06H24v8.24h12.66c-.6 3.1-2.3 5.7-4.91 7.46l7.62 5.93c4.47-4.14 7.32-10.24 7.32-17.57z"/>
  <path fill="#FBBC05" d="M10.54 28.29c-1.3-.79-2.45-1.81-3.39-2.96l-7.63 5.92C3.7 38.59 12.86 44 24 44c5.71 0 10.72-1.88 14.37-5.1l-7.62-5.93c-2.12 1.44-4.79 2.3-7.75 2.3-5.34 0-9.89-3.6-11.46-8.98z"/>
  <path fill="#EA4335" d="M2.91 13.77A22.02 22.02 0 000 24c0 3.51.82 6.82 2.26 9.79l7.62-5.93A13.47 13.47 0 0110.54 24c0-1.63.3-3.19.84-4.64L2.91 13.77z"/>
</svg>
